<svg width="24" height="24" viewBox="0 0 24 24" fill="none" xmlns="http://www.w3.org/2000/svg">
<path d="M11.9979 21.9961C17.5197 21.9961 21.9961 17.5197 21.9961 11.9979C21.9961 6.47599 17.5197 1.99963 11.9979 1.99963C6.47599 1.99963 1.99963 6.47599 1.99963 11.9979C1.99963 17.5197 6.47599 21.9961 11.9979 21.9961Z" stroke="#757575" stroke-width="1.99964" stroke-linecap="round" stroke-linejoin="round"/>
<path d="M11.9979 12.9977C13.6544 12.9977 14.9973 11.6548 14.9973 9.99825C14.9973 8.34169 13.6544 6.99878 11.9979 6.99878C10.3413 6.99878 8.99841 8.34169 8.99841 9.99825C8.99841 11.6548 10.3413 12.9977 11.9979 12.9977Z" stroke="#757575" stroke-width="1.99964" stroke-linecap="round" stroke-linejoin="round"/>
<path d="M6.99878 20.6583V18.9966C6.99878 18.4663 7.20946 17.9576 7.58446 17.5826C7.95947 17.2076 8.46808 16.9969 8.99842 16.9969H14.9974C15.5277 16.9969 16.0363 17.2076 16.4113 17.5826C16.7863 17.9576 16.997 18.4663 16.997 18.9966V20.6583" stroke="#757575" stroke-width="1.99964" stroke-linecap="round" stroke-linejoin="round"/>
</svg>
